<svg id="visual" viewBox="0 0 450 900" width="450" height="900" xmlns="http://www.w3.org/2000/svg" xmlns:xlink="http://www.w3.org/1999/xlink" version="1.1"><rect x="0" y="0" width="450" height="900" fill="#001220"></rect><defs><linearGradient id="grad1_0" x1="0%" y1="0%" x2="100%" y2="100%"><stop offset="30%" stop-color="#fbae3c" stop-opacity="1"></stop><stop offset="70%" stop-color="#fbae3c" stop-opacity="1"></stop></linearGradient></defs><defs><linearGradient id="grad1_1" x1="0%" y1="0%" x2="100%" y2="100%"><stop offset="30%" stop-color="#fbae3c" stop-opacity="1"></stop><stop offset="70%" stop-color="#f17c53" stop-opacity="1"></stop></linearGradient></defs><defs><linearGradient id="grad1_2" x1="0%" y1="0%" x2="100%" y2="100%"><stop offset="30%" stop-color="#cc5867" stop-opacity="1"></stop><stop offset="70%" stop-color="#f17c53" stop-opacity="1"></stop></linearGradient></defs><defs><linearGradient id="grad1_3" x1="0%" y1="0%" x2="100%" y2="100%"><stop offset="30%" stop-color="#cc5867" stop-opacity="1"></stop><stop offset="70%" stop-color="#96446e" stop-opacity="1"></stop></linearGradient></defs><defs><linearGradient id="grad1_4" x1="0%" y1="0%" x2="100%" y2="100%"><stop offset="30%" stop-color="#593762" stop-opacity="1"></stop><stop offset="70%" stop-color="#96446e" stop-opacity="1"></stop></linearGradient></defs><defs><linearGradient id="grad1_5" x1="0%" y1="0%" x2="100%" y2="100%"><stop offset="30%" stop-color="#593762" stop-opacity="1"></stop><stop offset="70%" stop-color="#232745" stop-opacity="1"></stop></linearGradient></defs><defs><linearGradient id="grad1_6" x1="0%" y1="0%" x2="100%" y2="100%"><stop offset="30%" stop-color="#001220" stop-opacity="1"></stop><stop offset="70%" stop-color="#232745" stop-opacity="1"></stop></linearGradient></defs><defs><linearGradient id="grad2_0" x1="0%" y1="0%" x2="100%" y2="100%"><stop offset="30%" stop-color="#fbae3c" stop-opacity="1"></stop><stop offset="70%" stop-color="#fbae3c" stop-opacity="1"></stop></linearGradient></defs><defs><linearGradient id="grad2_1" x1="0%" y1="0%" x2="100%" y2="100%"><stop offset="30%" stop-color="#f17c53" stop-opacity="1"></stop><stop offset="70%" stop-color="#fbae3c" stop-opacity="1"></stop></linearGradient></defs><defs><linearGradient id="grad2_2" x1="0%" y1="0%" x2="100%" y2="100%"><stop offset="30%" stop-color="#f17c53" stop-opacity="1"></stop><stop offset="70%" stop-color="#cc5867" stop-opacity="1"></stop></linearGradient></defs><defs><linearGradient id="grad2_3" x1="0%" y1="0%" x2="100%" y2="100%"><stop offset="30%" stop-color="#96446e" stop-opacity="1"></stop><stop offset="70%" stop-color="#cc5867" stop-opacity="1"></stop></linearGradient></defs><defs><linearGradient id="grad2_4" x1="0%" y1="0%" x2="100%" y2="100%"><stop offset="30%" stop-color="#96446e" stop-opacity="1"></stop><stop offset="70%" stop-color="#593762" stop-opacity="1"></stop></linearGradient></defs><defs><linearGradient id="grad2_5" x1="0%" y1="0%" x2="100%" y2="100%"><stop offset="30%" stop-color="#232745" stop-opacity="1"></stop><stop offset="70%" stop-color="#593762" stop-opacity="1"></stop></linearGradient></defs><defs><linearGradient id="grad2_6" x1="0%" y1="0%" x2="100%" y2="100%"><stop offset="30%" stop-color="#232745" stop-opacity="1"></stop><stop offset="70%" stop-color="#001220" stop-opacity="1"></stop></linearGradient></defs><g transform="translate(450, 0)"><path d="M0 405C-48.8 392.6 -97.6 380.3 -150.8 364C-204 347.7 -261.5 327.6 -286.4 286.4C-311.3 245.2 -303.5 182.9 -317.8 131.6C-332.1 80.4 -368.6 40.2 -405 0L0 0Z" fill="#0f1d33"></path><path d="M0 347.1C-41.8 336.5 -83.7 325.9 -129.2 312C-174.8 298.1 -224.1 280.8 -245.5 245.5C-266.8 210.1 -260.1 156.8 -272.4 112.8C-284.7 68.9 -315.9 34.5 -347.1 0L0 0Z" fill="#3d3056"></path><path d="M0 289.3C-34.9 280.5 -69.7 271.6 -107.7 260C-145.7 248.4 -186.8 234 -204.6 204.6C-222.3 175.1 -216.8 130.6 -227 94C-237.2 57.4 -263.3 28.7 -289.3 0L0 0Z" fill="#773d6b"></path><path d="M0 231.4C-27.9 224.4 -55.8 217.3 -86.2 208C-116.5 198.7 -149.4 187.2 -163.6 163.6C-177.9 140.1 -173.4 104.5 -181.6 75.2C-189.8 45.9 -210.6 23 -231.4 0L0 0Z" fill="#b34c6d"></path><path d="M0 173.6C-20.9 168.3 -41.8 163 -64.6 156C-87.4 149 -112.1 140.4 -122.7 122.7C-133.4 105.1 -130.1 78.4 -136.2 56.4C-142.3 34.5 -158 17.2 -173.6 0L0 0Z" fill="#e1685e"></path><path d="M0 115.7C-13.9 112.2 -27.9 108.6 -43.1 104C-58.3 99.4 -74.7 93.6 -81.8 81.8C-88.9 70 -86.7 52.3 -90.8 37.6C-94.9 23 -105.3 11.5 -115.7 0L0 0Z" fill="#f99447"></path><path d="M0 57.9C-7 56.1 -13.9 54.3 -21.5 52C-29.1 49.7 -37.4 46.8 -40.9 40.9C-44.5 35 -43.4 26.1 -45.4 18.8C-47.4 11.5 -52.7 5.7 -57.9 0L0 0Z" fill="#fbae3c"></path></g><g transform="translate(0, 900)"><path d="M0 -405C52.3 -399.6 104.6 -394.2 155 -374.2C205.3 -354.1 253.8 -319.5 274.4 -274.4C295 -229.3 287.7 -173.7 304.9 -126.3C322 -78.8 363.5 -39.4 405 0L0 0Z" fill="#0f1d33"></path><path d="M0 -347.1C44.8 -342.5 89.7 -337.9 132.8 -320.7C176 -303.5 217.5 -273.8 235.2 -235.2C252.8 -196.5 246.6 -148.9 261.3 -108.2C276 -67.6 311.6 -33.8 347.1 0L0 0Z" fill="#3d3056"></path><path d="M0 -289.3C37.4 -285.4 74.7 -281.6 110.7 -267.3C146.7 -253 181.3 -228.2 196 -196C210.7 -163.8 205.5 -124.1 217.8 -90.2C230 -56.3 259.6 -28.2 289.3 0L0 0Z" fill="#773d6b"></path><path d="M0 -231.4C29.9 -228.3 59.8 -225.3 88.6 -213.8C117.3 -202.4 145 -182.5 156.8 -156.8C168.5 -131 164.4 -99.3 174.2 -72.2C184 -45 207.7 -22.5 231.4 0L0 0Z" fill="#b34c6d"></path><path d="M0 -173.6C22.4 -171.3 44.8 -168.9 66.4 -160.4C88 -151.8 108.8 -136.9 117.6 -117.6C126.4 -98.3 123.3 -74.5 130.7 -54.1C138 -33.8 155.8 -16.9 173.6 0L0 0Z" fill="#e1685e"></path><path d="M0 -115.7C14.9 -114.2 29.9 -112.6 44.3 -106.9C58.7 -101.2 72.5 -91.3 78.4 -78.4C84.3 -65.5 82.2 -49.6 87.1 -36.1C92 -22.5 103.9 -11.3 115.7 0L0 0Z" fill="#f99447"></path><path d="M0 -57.9C7.5 -57.1 14.9 -56.3 22.1 -53.5C29.3 -50.6 36.3 -45.6 39.2 -39.2C42.1 -32.8 41.1 -24.8 43.6 -18C46 -11.3 51.9 -5.6 57.9 0L0 0Z" fill="#fbae3c"></path></g></svg>